PathFileType   4   (X/Y/Z)
DataRate	CameraRate	NumFrames	NumMarkers	Units	OrigDataRate	OrigDataStartFrame	OrigNumFrames
120.0	120.0	7	37	mm	120.0	92	182
Frame#	Time	midhip	hip_r	hip_l	knee_r	knee_l	ankle_r	ankle_l	midasis	asis_r	asis_l	psis_r	psis_l	epicondLat_r	epicondLat_l	epicondMed_r	epicondMed_l	malleolusLat_r	malleolusLat_l	malleolusMedv_r	malleolusMedv_l	neck	subclavicle_r	subclavicle_l	sternalnotch	xyphoidprocess	thighwand_r	thighwand_l	upperleg1_r	upperleg1_l	upperleg2_r	upperleg2_l	shankwand_r	shankwand_l	lowerleg1_r	lowerleg1_l	toe_r	toe_l
 	 	X1	Y1	Z1	X2	Y2	Z2	X3	Y3	Z3	X4	Y4	Z4	X5	Y5	Z5	X6	Y6	Z6	X7	Y7	Z7	X8	Y8	Z8	X9	Y9	Z9	X10	Y10	Z10	X11	Y11	Z11	X12	Y12	Z12	X13	Y13	Z13	X14	Y14	Z14	X15	Y15	Z15	X16	Y16	Z16	X17	Y17	Z17	X18	Y18	Z18	X19	Y19	Z19	X20	Y20	Z20	X21	Y21	Z21	X22	Y22	Z22	X23	Y23	Z23	X24	Y24	Z24	X25	Y25	Z25	X26	Y26	Z26	X27	Y27	Z27	X28	Y28	Z28	X29	Y29	Z29	X30	Y30	Z30	X31	Y31	Z31	X32	Y32	Z32	X33	Y33	Z33	X34	Y34	Z34	X35	Y35	Z35	X36	Y36	Z36	X37	Y37	Z37

	92	1.01667	-472.083	902.098	285.375	-473.120	885.659	336.061	-487.887	880.272	230.657	-369.686	489.662	327.702	-554.458	468.682	218.290	-344.855	71.546	320.979	-775.994	108.239	227.580	-403.201	979.666	267.587	-388.715	984.951	370.988	-417.687	974.381	164.186	-597.841	1007.125	330.642	-606.624	1004.441	245.119	-359.018	491.213	386.217	-553.363	470.292	158.822	-388.954	500.097	267.500	-561.899	474.494	272.371	-348.392	70.728	358.805	-779.958	109.663	188.305	-346.991	77.529	289.140	-766.803	120.121	256.084	-522.979	1462.777	285.633	-424.241	1383.932	359.370	-436.467	1388.454	204.110	-442.846	1388.355	278.811	-418.273	1185.381	264.196	-349.147	592.666	468.963	-384.501	572.985	199.495	-345.846	658.249	399.663	-452.784	644.190	165.288	-334.424	579.406	372.301	-480.155	558.563	171.480	-339.022	146.957	427.305	-632.933	157.572	226.396	-361.490	203.363	367.095	-664.292	233.581	215.273	-222.262	44.621	307.047	-670.726	42.944	236.354
	93	1.02500	-468.834	900.084	285.548	-466.902	886.538	336.602	-481.959	881.244	231.234	-366.525	489.884	328.265	-545.765	469.107	217.235	-344.564	71.487	321.179	-772.282	111.355	227.006	-397.198	980.627	268.022	-382.423	985.822	371.417	-411.972	975.433	164.627	-591.803	1008.062	331.476	-601.326	1005.365	246.169	-356.250	491.252	386.855	-545.598	471.101	157.769	-384.944	500.702	267.969	-544.078	470.156	268.969	-348.225	70.655	358.993	-777.062	113.312	187.845	-346.852	77.519	289.373	-762.800	123.445	255.375	-517.467	1463.625	287.091	-418.621	1384.749	360.351	-431.104	1389.611	205.234	-437.361	1389.339	279.889	-412.656	1186.419	264.770	-346.173	592.547	469.861	-376.119	573.977	196.338	-341.405	658.244	400.711	-444.171	645.117	163.868	-330.607	579.303	373.406	-466.519	560.702	168.913	-338.537	146.749	427.626	-628.872	159.012	223.335	-360.624	203.326	367.496	-659.130	235.661	213.925	-222.023	44.375	307.058	-669.647	43.019	236.109
	94	1.03333	-465.377	898.397	285.634	-460.896	887.300	336.999	-476.200	882.169	231.659	-363.482	490.044	328.815	-536.878	469.565	215.987	-344.268	71.452	321.346	-768.242	114.524	226.288	-391.359	981.500	268.401	-376.347	986.533	371.725	-406.370	976.468	165.078	-585.788	1008.885	332.309	-596.034	1006.266	247.229	-353.539	491.274	387.465	-537.686	471.942	156.540	-381.082	501.300	268.341	-534.248	469.872	268.045	-348.061	70.603	359.147	-773.879	117.066	187.275	-346.680	77.576	289.535	-758.437	126.844	254.522	-511.968	1464.509	288.414	-413.060	1385.543	361.260	-425.729	1390.741	206.347	-431.897	1390.303	280.921	-407.149	1187.425	265.320	-343.178	592.437	470.693	-367.795	574.977	192.875	-337.164	658.239	401.683	-437.197	646.105	161.980	-326.901	579.215	374.357	-459.140	561.131	167.018	-338.101	146.532	427.899	-624.582	160.502	219.980	-359.720	203.361	367.870	-653.477	237.935	212.239	-221.806	44.165	307.058	-668.537	43.077	235.811
	95	1.04167	-458.112	901.073	285.356	-455.105	887.964	337.383	-470.704	883.030	232.077	-360.526	490.175	329.341	-528.050	469.993	214.556	-343.992	71.431	321.476	-763.956	117.694	225.431	-385.736	982.273	268.765	-370.445	987.110	371.996	-401.028	977.436	165.534	-579.847	1009.597	333.138	-590.607	1007.109	248.256	-350.856	491.287	388.039	-529.856	472.764	155.148	-377.832	501.786	268.727	-524.158	469.135	266.253	-347.906	70.567	359.264	-770.468	120.856	186.600	-346.545	77.628	289.664	-753.764	130.194	253.510	-506.467	1465.326	289.739	-407.421	1386.317	362.202	-420.393	1391.773	207.443	-426.417	1391.205	281.969	-401.602	1188.366	265.965	-340.166	592.345	471.445	-359.628	575.969	189.199	-333.419	658.155	402.606	-430.172	646.974	159.913	-323.567	579.082	375.132	-451.436	561.598	164.693	-337.664	146.312	428.123	-620.052	162.025	216.387	-358.817	203.418	368.225	-647.788	240.110	210.189	-221.608	43.983	307.042	-667.416	43.104	235.463
	96	1.05000	-453.689	900.290	285.311	-449.440	888.541	337.758	-465.324	883.818	232.484	-357.586	490.293	329.832	-518.863	470.410	212.966	-343.756	71.415	321.571	-759.478	120.846	224.396	-380.248	982.980	269.140	-364.688	987.607	372.267	-395.808	978.354	166.012	-573.898	1010.133	333.858	-585.167	1007.888	249.257	-348.169	491.296	388.573	-521.695	473.579	153.618	-374.697	502.196	269.096	-514.029	468.677	264.884	-347.768	70.538	359.349	-766.843	124.653	185.776	-346.408	77.667	289.746	-748.872	133.513	252.333	-501.068	1466.022	291.059	-401.819	1387.064	363.184	-415.226	1392.693	208.506	-421.042	1392.032	283.029	-396.104	1189.233	266.713	-337.168	592.270	472.115	-351.576	577.041	185.385	-329.763	658.042	403.412	-423.123	647.835	157.727	-320.313	578.956	375.826	-443.825	561.932	162.488	-337.199	146.093	428.304	-615.245	163.572	212.631	-357.862	203.466	368.486	-641.982	242.053	208.091	-221.426	43.830	307.015	-666.276	43.099	235.072
	97	1.05833	-446.807	902.548	284.266	-443.884	889.054	338.223	-460.123	884.513	232.995	-354.647	490.409	330.278	-509.857	470.717	211.253	-343.575	71.395	321.633	-754.811	123.971	223.168	-374.927	983.616	269.535	-359.026	988.062	372.572	-390.829	979.169	166.499	-568.009	1010.498	334.478	-579.996	1008.626	250.199	-345.463	491.294	389.059	-513.722	474.296	151.987	-371.849	502.605	269.467	-503.626	468.407	263.996	-347.650	70.508	359.403	-762.966	128.413	184.775	-346.279	77.710	289.789	-743.716	136.784	250.978	-495.763	1466.649	292.365	-396.209	1387.785	364.136	-410.114	1393.570	209.522	-415.693	1392.816	284.055	-390.514	1190.072	267.428	-334.178	592.205	472.705	-343.725	578.207	181.495	-326.061	657.962	404.066	-416.052	648.723	155.501	-317.157	578.823	376.423	-436.188	562.134	160.479	-336.685	145.868	428.449	-610.141	165.127	208.809	-356.899	203.513	368.671	-635.930	243.996	205.894	-221.260	43.701	306.980	-665.072	43.074	234.640
	98	1.06667	-440.776	903.901	283.882	-438.407	889.529	338.718	-454.965	885.154	233.533	-351.695	490.506	330.682	-500.663	470.941	209.454	-343.457	71.361	321.666	-749.844	127.076	221.725	-369.644	984.187	269.970	-353.440	988.468	372.909	-385.849	979.906	167.031	-562.310	1010.934	335.201	-574.828	1009.269	251.108	-342.718	491.273	389.496	-505.562	474.921	150.289	-369.376	502.863	269.952	-494.728	468.227	261.886	-347.551	70.468	359.434	-758.691	132.125	183.561	-346.241	77.704	289.833	-738.196	139.949	249.433	-490.421	1467.235	293.695	-390.592	1388.470	365.121	-404.943	1394.421	210.560	-410.310	1393.568	285.105	-384.880	1190.882	268.162	-331.145	592.141	473.224	-335.974	579.475	177.601	-322.537	657.880	404.599	-408.859	649.598	153.345	-314.182	578.660	376.937	-429.024	562.509	158.017	-336.096	145.633	428.571	-604.739	166.661	205.020	-355.987	203.517	368.869	-630.002	245.935	203.493	-221.107	43.588	306.936	-663.747	43.047	234.159
